<svg width="24" height="24" viewBox="0 0 24 24" fill="#e3e3e3" xmlns="http://www.w3.org/2000/svg">
  <path d="m 19.702994,10.558239 a 9.4,9.4 0 0 1 0.139,1.626 c 0,2.434 -0.87,4.492 -2.384,5.885 h 0.002 c -1.324,1.223 -3.144,1.931 -5.302,1.931 a 8,8 0 1 1 0,-16.0000003 7.7,7.7 0 0 1 5.352,2.082 l -2.284,2.284 a 4.35,4.35 0 0 0 -3.068,-1.2 c -2.087,0 -3.8600003,1.408 -4.4920003,3.3040003 a 4.8,4.8 0 0 0 0,3.063 h 0.003 c 0.635,1.893 2.4050003,3.301 4.4920003,3.301 1.078,0 2.004,-0.276 2.722,-0.764 h -0.003 a 3.7,3.7 0 0 0 1.599,-2.431 h -4.321 v -3.08 z" />
</svg>
